<mxfile host="app.diagrams.net" modified="2024-03-21T10:00:00.000Z" agent="Mozilla/5.0" version="21.1.9">
  <diagram id="architecture" name="Architecture">
    <mxGraphModel dx="1422" dy="762" grid="1" gridSize="10" guides="1" tooltips="1" connect="1" arrows="1" fold="1" page="1" pageScale="1" pageWidth="827" pageHeight="1169" math="0" shadow="0">
      <root>
        <mxCell id="0" />
        <mxCell id="1" parent="0" />
        
        <!-- Réseau blog-network -->
        <mxCell id="2" value="blog-network" style="swimlane;whiteSpace=wrap;html=1;fillColor=#f5f5f5;strokeColor=#666666;fontColor=#333333;" vertex="1" parent="1">
          <mxGeometry x="40" y="40" width="760" height="480" as="geometry" />
        </mxCell>

        <!-- Services Principaux -->
        <mxCell id="3" value="Frontend (front)&#xa;Port: 5173&#xa;Dockerfile.dev" style="rounded=1;whiteSpace=wrap;html=1;fillColor=#dae8fc;strokeColor=#6c8ebf;" vertex="1" parent="1">
          <mxGeometry x="60" y="80" width="160" height="60" as="geometry" />
        </mxCell>

        <mxCell id="4" value="Backend (server)&#xa;Port: 3000&#xa;Dockerfile.dev" style="rounded=1;whiteSpace=wrap;html=1;fillColor=#d5e8d4;strokeColor=#82b366;" vertex="1" parent="1">
          <mxGeometry x="60" y="200" width="160" height="60" as="geometry" />
        </mxCell>

        <mxCell id="5" value="MySQL (db)&#xa;Port: 3306" style="rounded=1;whiteSpace=wrap;html=1;fillColor=#fff2cc;strokeColor=#d6b656;" vertex="1" parent="1">
          <mxGeometry x="60" y="320" width="160" height="60" as="geometry" />
        </mxCell>

        <!-- Services de Monitoring -->
        <mxCell id="6" value="Prometheus&#xa;Port: 9090" style="rounded=1;whiteSpace=wrap;html=1;fillColor=#ffe6cc;strokeColor=#d79b00;" vertex="1" parent="1">
          <mxGeometry x="340" y="80" width="160" height="60" as="geometry" />
        </mxCell>

        <mxCell id="7" value="Grafana&#xa;Port: 3001" style="rounded=1;whiteSpace=wrap;html=1;fillColor=#ffe6cc;strokeColor=#d79b00;" vertex="1" parent="1">
          <mxGeometry x="340" y="200" width="160" height="60" as="geometry" />
        </mxCell>

        <mxCell id="8" value="cAdvisor&#xa;Port: 8081" style="rounded=1;whiteSpace=wrap;html=1;fillColor=#ffe6cc;strokeColor=#d79b00;" vertex="1" parent="1">
          <mxGeometry x="340" y="320" width="160" height="60" as="geometry" />
        </mxCell>

        <!-- Services d'Administration -->
        <mxCell id="9" value="Portainer&#xa;Port: 9000" style="rounded=1;whiteSpace=wrap;html=1;fillColor=#e1d5e7;strokeColor=#9673a6;" vertex="1" parent="1">
          <mxGeometry x="620" y="80" width="160" height="60" as="geometry" />
        </mxCell>

        <mxCell id="10" value="PHPMyAdmin&#xa;Port: 8080" style="rounded=1;whiteSpace=wrap;html=1;fillColor=#e1d5e7;strokeColor=#9673a6;" vertex="1" parent="1">
          <mxGeometry x="620" y="200" width="160" height="60" as="geometry" />
        </mxCell>

        <mxCell id="11" value="Weave Scope&#xa;Port: 4040" style="rounded=1;whiteSpace=wrap;html=1;fillColor=#e1d5e7;strokeColor=#9673a6;" vertex="1" parent="1">
          <mxGeometry x="620" y="320" width="160" height="60" as="geometry" />
        </mxCell>

        <!-- Dépendances -->
        <mxCell id="12" value="depends_on" style="endArrow=classic;html=1;rounded=0;" edge="1" parent="1" source="3" target="4">
          <mxGeometry relative="1" as="geometry" />
        </mxCell>

        <mxCell id="13" value="depends_on" style="endArrow=classic;html=1;rounded=0;" edge="1" parent="1" source="4" target="5">
          <mxGeometry relative="1" as="geometry" />
        </mxCell>

        <mxCell id="14" value="depends_on" style="endArrow=classic;html=1;rounded=0;" edge="1" parent="1" source="6" target="8">
          <mxGeometry relative="1" as="geometry" />
        </mxCell>

        <mxCell id="15" value="depends_on" style="endArrow=classic;html=1;rounded=0;" edge="1" parent="1" source="7" target="6">
          <mxGeometry relative="1" as="geometry" />
        </mxCell>

        <mxCell id="16" value="depends_on" style="endArrow=classic;html=1;rounded=0;" edge="1" parent="1" source="10" target="5">
          <mxGeometry relative="1" as="geometry" />
        </mxCell>

        <!-- Volumes -->
        <mxCell id="17" value="Volumes:&#xa;- mysql_data&#xa;- prometheus_data&#xa;- grafana_data&#xa;- portainer_data" style="shape=note;whiteSpace=wrap;html=1;size=14;verticalAlign=top;align=left;spacingTop=-6;fillColor=#f5f5f5;strokeColor=#666666;fontColor=#333333;" vertex="1" parent="1">
          <mxGeometry x="60" y="440" width="160" height="60" as="geometry" />
        </mxCell>

      </root>
    </mxGraphModel>
  </diagram>
</mxfile> 